name C:\Users\u0101727\Documents\MyRepositories\upper-imu-dc\Results\main_tracking\Case_49\kinematics_filtered.mot
datacolumns 10
datarows 37
range 0.70000000 1.06000000
endheader 
time	clav_prot	clav_elev	scapula_abduction	scapula_elevation	scapula_upward_rot	scapula_winging	plane_elv	shoulder_elv	axial_rot	
          0.70000000	        -27.07113677	         -4.06839432	        -19.83399173	         -4.37727478	         13.86924016	          4.96992446	        -34.13834260	         17.82817511	         23.87234529	
          0.71000000	        -27.06077060	         -4.06935740	        -19.78962963	         -4.37699530	         13.87744807	          4.96839324	        -34.16300501	         17.83322311	         23.92856595	
          0.72000000	        -27.05038514	         -4.07011372	        -19.74739014	         -4.37673513	         13.88548023	          4.96691274	        -34.18813924	         17.83809491	         23.98587514	
          0.73000000	        -27.04020757	         -4.07054179	        -19.70915950	         -4.37649396	         13.89306662	          4.96553631	        -34.21362121	         17.84254732	         24.04419333	
          0.74000000	        -27.03051788	         -4.07062033	        -19.67603184	         -4.37626147	         13.89995494	          4.96430989	        -34.23939714	         17.84631826	         24.10372657	
          0.75000000	        -27.02161907	         -4.07038536	        -19.64849364	         -4.37601165	         13.90592311	          4.96326599	        -34.26546023	         17.84914531	         24.16492448	
          0.76000000	        -27.01380401	         -4.06988589	        -19.62664330	         -4.37569970	         13.91078979	          4.96241949	        -34.29183120	         17.85078410	         24.22843006	
          0.77000000	        -27.00732887	         -4.06915686	        -19.61034550	         -4.37526355	         13.91442188	          4.96176656	        -34.31854456	         17.85102149	         24.29502424	
          0.78000000	        -27.00239178	         -4.06820727	        -19.59932740	         -4.37462943	         13.91673927	          4.96128649	        -34.34564077	         17.84968354	         24.36556757	
          0.79000000	        -26.99911649	         -4.06702000	        -19.59322835	         -4.37372018	         13.91771759	          4.96094544	        -34.37316384	         17.84663960	         24.44094184	
          0.80000000	        -26.99754079	         -4.06555927	        -19.59161732	         -4.37246473	         13.91738889	          4.96070139	        -34.40116282	         17.84180395	         24.52199503	
          0.81000000	        -26.99761093	         -4.06378196	        -19.59399287	         -4.37080728	         13.91583984	          4.96050940	        -34.42969579	         17.83513599	         24.60949349	
          0.82000000	        -26.99918299	         -4.06164962	        -19.59977917	         -4.36871458	         13.91320693	          4.96032646	        -34.45883469	         17.82663922	         24.70408535	
          0.83000000	        -27.00203198	         -4.05913897	        -19.60832794	         -4.36618070	         13.90966805	          4.96011578	        -34.48866976	         17.81635916	         24.80627846	
          0.84000000	        -27.00586884	         -4.05624925	        -19.61893262	         -4.36322844	         13.90543049	          4.95984983	        -34.51931250	         17.80438006	         24.91643466	
          0.85000000	        -27.01036371	         -4.05300564	        -19.63085605	         -4.35990753	         13.90071611	          4.95951229	        -34.55089668	         17.79082036	         25.03478048	
          0.86000000	        -27.01517345	         -4.04945887	        -19.64336901	         -4.35628993	         13.89574508	          4.95909863	        -34.58357726	         17.77582703	         25.16143182	
          0.87000000	        -27.01996990	         -4.04568117	        -19.65579402	         -4.35246305	         13.89072023	          4.95861538	        -34.61752756	         17.75956914	         25.29642865	
          0.88000000	        -27.02446540	         -4.04175978	        -19.66754716	         -4.34852184	         13.88581383	          4.95807830	        -34.65293473	         17.74223140	         25.43977345	
          0.89000000	        -27.02843252	         -4.03778882	        -19.67817100	         -4.34456079	         13.88115895	          4.95750957	        -34.68999394	         17.72400827	         25.59146623	
          0.90000000	        -27.03171561	         -4.03386087	        -19.68735355	         -4.34066692	         13.87684620	          4.95693439	        -34.72890098	         17.70509970	         25.75152878	
          0.91000000	        -27.03423355	         -4.03005925	        -19.69493072	         -4.33691440	         13.87292622	          4.95637735	        -34.76984304	         17.68570926	         25.92001131	
          0.92000000	        -27.03597411	         -4.02645200	        -19.70087294	         -4.33336138	         13.86941715	          4.95585900	        -34.81298723	         17.66604528	         26.09697684	
          0.93000000	        -27.03698185	         -4.02308815	        -19.70525907	         -4.33004913	         13.86631565	          4.95539300	        -34.85846644	         17.64632518	         26.28246133	
          0.94000000	        -27.03734209	         -4.01999643	        -19.70824285	         -4.32700336	         13.86360948	          4.95498412	        -34.90636246	         17.62678296	         26.47641085	
          0.95000000	        -27.03716383	         -4.01718647	        -19.71001726	         -4.32423721	         13.86128983	          4.95462730	        -34.95668654	         17.60767913	         26.67860075	
          0.96000000	        -27.03656407	         -4.01465198	        -19.71078203	         -4.32175548	         13.85936177	          4.95430767	        -35.00935835	         17.58931195	         26.88854465	
          0.97000000	        -27.03565565	         -4.01237521	        -19.71071820	         -4.31955925	         13.85785179	          4.95400144	        -35.06418414	         17.57202880	         27.10540337	
          0.98000000	        -27.03453964	         -4.01033212	        -19.70997234	         -4.31765043	         13.85681178	          4.95367748	        -35.12083592	         17.55623588	         27.32790495	
          0.99000000	        -27.03330308	         -4.00849743	        -19.70865179	         -4.31603564	         13.85631944	          4.95329914	        -35.17883309	         17.54240507	         27.55428640	
          1.00000000	        -27.03202217	         -4.00684902	        -19.70683102	         -4.31472900	         13.85647518	          4.95282635	        -35.23752844	         17.53107666	         27.78226641	
          1.01000000	        -27.03077029	         -4.00537125	        -19.70456825	         -4.31375373	         13.85739598	          4.95221742	        -35.29610013	         17.52285720	         28.00905545	
          1.02000000	        -27.02963022	         -4.00405708	        -19.70193063	         -4.31314232	         13.85920700	          4.95143080	        -35.35355121	         17.51841241	         28.23140629	
          1.03000000	        -27.02870888	         -4.00290865	        -19.69902489	         -4.31293552	         13.86203177	          4.95042623	        -35.40871753	         17.51845546	         28.44570414	
          1.04000000	        -27.02815310	         -4.00193662	        -19.69602995	         -4.31318027	         13.86598230	          4.94916547	        -35.46028471	         17.52373137	         28.64809171	
          1.05000000	        -27.02816416	         -4.00115827	        -19.69322720	         -4.31392702	         13.87115026	          4.94761238	        -35.50681373	         17.53499900	         28.83462049	
          1.06000000	        -27.02900936	         -4.00059467	        -19.69102447	         -4.31522660	         13.87760066	          4.94573239	        -35.54677415	         17.55301215	         29.00141653	
